<svg width="24" height="24" viewBox="0 0 24 24" fill="none" xmlns="http://www.w3.org/2000/svg">
<path fill-rule="evenodd" clip-rule="evenodd" d="M12 24C18.627 24 24 18.627 24 12C24 5.37295 18.6284 0 12 0C5.37295 0 0 5.37295 0 12C0 18.627 5.37295 24 12 24ZM19.8347 13.3106V14.0837C19.8347 14.128 19.8075 14.1675 19.7681 14.1847C19.5264 14.2883 18.6992 14.668 18.3552 15.1464C18.1638 15.4127 17.9823 15.704 17.8 15.9967L17.7999 15.9968C17.1456 17.0468 16.4799 18.1152 15.3075 18.1152H9.05303C6.83632 18.1152 5.03999 16.3127 5.03999 14.0886V14.0171C5.03999 13.9579 5.08807 13.9098 5.14725 13.9098H8.63387C8.7029 13.9098 8.75344 13.9739 8.7473 14.0417C8.72263 14.2686 8.76455 14.5004 8.87181 14.7112C9.07893 15.1316 9.50798 15.3942 9.97154 15.3942H11.6976V14.0467H9.99127C9.90374 14.0467 9.85197 13.9456 9.90251 13.8741C9.91273 13.8584 9.9237 13.8423 9.93522 13.8255L9.93534 13.8253C9.94463 13.8117 9.95427 13.7977 9.96415 13.7828C10.1257 13.5535 10.3562 13.1972 10.5855 12.7916C10.7421 12.5179 10.8937 12.2257 11.0158 11.9323C11.0384 11.8836 11.0569 11.8339 11.075 11.7851L11.0799 11.772C11.0844 11.7593 11.089 11.7467 11.0935 11.7342C11.0977 11.7226 11.1019 11.7111 11.1061 11.6997L11.1061 11.6996C11.1306 11.6325 11.1542 11.5679 11.1724 11.5032C11.1925 11.4428 11.2093 11.38 11.2256 11.3194L11.2256 11.3194L11.2365 11.2788C11.2944 11.0298 11.3191 10.7659 11.3191 10.4922C11.3191 10.385 11.3142 10.2728 11.3043 10.1655C11.2994 10.0484 11.2846 9.93127 11.2698 9.81415C11.2599 9.71059 11.2414 9.60825 11.2217 9.501C11.1971 9.34442 11.1625 9.18909 11.1231 9.03249L11.1095 8.97333C11.1007 8.9414 11.0923 8.90991 11.084 8.87859L11.084 8.87855C11.0644 8.80468 11.045 8.7318 11.0207 8.65648C10.9233 8.31988 10.8112 7.99195 10.6928 7.68496C10.6496 7.5629 10.6003 7.44579 10.551 7.32867L10.551 7.32866C10.4938 7.19009 10.4359 7.06143 10.3808 6.93907L10.3365 6.84043C10.302 6.77138 10.2724 6.7085 10.2428 6.6444C10.2095 6.57165 10.175 6.49891 10.1404 6.42989C10.1308 6.40906 10.1205 6.3888 10.1104 6.36888L10.1104 6.36886C10.0948 6.3381 10.0797 6.30816 10.0677 6.27823L9.85689 5.88864C9.8273 5.83562 9.87662 5.77274 9.93455 5.78877L11.2538 6.1463H11.2575C11.258 6.1463 11.2585 6.14637 11.259 6.14647C11.2597 6.14663 11.2602 6.14687 11.2608 6.14708C11.2614 6.14734 11.2619 6.14755 11.2624 6.14755L11.4362 6.19562L11.6273 6.24989L11.6976 6.26959V5.48549C11.6976 5.10698 12.0009 4.8 12.3757 4.8C12.5631 4.8 12.7332 4.87644 12.8553 5.00095C12.9773 5.12548 13.0538 5.29562 13.0538 5.48549V6.64934L13.1943 6.68877C13.2054 6.69249 13.2165 6.69741 13.2264 6.70481L13.2732 6.7403C13.3012 6.76166 13.3346 6.7871 13.3731 6.81578C13.393 6.83171 13.4135 6.84906 13.4352 6.86733L13.4353 6.86744C13.4671 6.89436 13.5014 6.92328 13.5395 6.95263C13.6665 7.05494 13.8182 7.18687 13.9846 7.33852C14.029 7.37673 14.0721 7.41619 14.1116 7.45565C14.3261 7.65537 14.5665 7.88961 14.7959 8.14853C14.86 8.22127 14.9228 8.29524 14.9869 8.3729C15.0096 8.40084 15.0328 8.42862 15.0559 8.45631L15.056 8.45642C15.098 8.50689 15.1398 8.55702 15.178 8.60717L15.2215 8.66481L15.2215 8.66483C15.2863 8.75045 15.353 8.83867 15.4123 8.93018C15.4273 8.95325 15.4433 8.97655 15.4592 8.99988C15.48 9.03017 15.5007 9.06051 15.5195 9.09045C15.6132 9.23222 15.6959 9.37896 15.7748 9.52567C15.8081 9.59347 15.8426 9.66744 15.8722 9.74018C15.9597 9.93621 16.0287 10.1359 16.0731 10.3357C16.0867 10.3788 16.0965 10.4257 16.1015 10.4676V10.4775C16.1163 10.5366 16.1212 10.5995 16.1261 10.6636C16.1458 10.8683 16.136 11.0729 16.0916 11.2788C16.0731 11.3664 16.0485 11.449 16.0189 11.5365L16.009 11.5647L16.009 11.5647C15.9826 11.6398 15.9554 11.7171 15.9215 11.7905C15.8475 11.9618 15.76 12.1332 15.6564 12.2935C15.6231 12.3527 15.5837 12.4156 15.5442 12.4747C15.5231 12.5054 15.5018 12.5352 15.4808 12.5644C15.4589 12.5951 15.4374 12.6251 15.4172 12.6547C15.363 12.7287 15.305 12.8064 15.2458 12.8754C15.1928 12.9482 15.1386 13.0209 15.0794 13.085C14.9968 13.1824 14.9179 13.2749 14.8353 13.3637C14.786 13.4216 14.733 13.4808 14.6787 13.5338C14.6333 13.5845 14.5869 13.6307 14.5435 13.6739L14.5435 13.674L14.5221 13.6953C14.4395 13.7779 14.3705 13.842 14.3125 13.895L14.1769 14.0195C14.1572 14.0368 14.1313 14.0467 14.1042 14.0467H13.0538V15.3942H14.3754C14.6713 15.3942 14.9524 15.2894 15.1793 15.0971L15.1854 15.0918C15.2734 15.015 15.6057 14.7251 15.9967 14.2932C16.0102 14.2784 16.0275 14.2673 16.0472 14.2624L19.6978 13.2071C19.7656 13.1873 19.8347 13.2391 19.8347 13.3106ZM5.92041 12.4032L5.97218 12.3218L9.09386 7.43837C9.13948 7.36687 9.24674 7.37426 9.28125 7.45193C9.80277 8.6207 10.2528 10.0743 10.042 10.9792C9.95195 11.3516 9.70538 11.8558 9.42796 12.3218C9.39223 12.3897 9.35277 12.4562 9.31084 12.5203C9.29111 12.5499 9.25783 12.5672 9.22207 12.5672H6.01163C5.92533 12.5672 5.87478 12.4735 5.92041 12.4032Z" fill="#F5F5F6"/>
</svg>
