<svg width="1143" height="72" viewBox="0 0 1143 72" fill="none" xmlns="http://www.w3.org/2000/svg">
<path d="M16 37H1127" stroke="#1E1E68" stroke-width="31" stroke-linecap="square"/>
<circle opacity="0.3" r="33" transform="matrix(1 0 0 -1 110.5 37)" fill="url(#paint0_linear_142_146)"/>
<circle opacity="0.4" r="22.5366" transform="matrix(1 0 0 -1 110.5 37)" fill="url(#paint1_linear_142_146)"/>
<circle r="12.878" transform="matrix(1 0 0 -1 110.5 37)" fill="url(#paint2_linear_142_146)"/>
<circle opacity="0.3" r="33" transform="matrix(1 0 0 -1 479 37)" fill="url(#paint3_linear_142_146)"/>
<circle opacity="0.4" r="22.5366" transform="matrix(1 0 0 -1 479 37)" fill="url(#paint4_linear_142_146)"/>
<circle r="12.878" transform="matrix(1 0 0 -1 479 37)" fill="url(#paint5_linear_142_146)"/>
<circle opacity="0.3" r="33" transform="matrix(1 0 0 -1 847 37)" fill="url(#paint6_linear_142_146)"/>
<circle opacity="0.4" r="22.5366" transform="matrix(1 0 0 -1 847 37)" fill="url(#paint7_linear_142_146)"/>
<circle r="12.878" transform="matrix(1 0 0 -1 847 37)" fill="url(#paint8_linear_142_146)"/>
<circle opacity="0.3" r="35" transform="matrix(1 0 0 -1 294.5 37)" fill="url(#paint9_linear_142_146)"/>
<circle opacity="0.4" r="23.9024" transform="matrix(1 0 0 -1 294.5 37)" fill="url(#paint10_linear_142_146)"/>
<circle r="13.6585" transform="matrix(1 0 0 -1 294.5 37)" fill="url(#paint11_linear_142_146)"/>
<circle opacity="0.3" r="35" transform="matrix(1 0 0 -1 663 36)" fill="url(#paint12_linear_142_146)"/>
<circle opacity="0.4" r="23.9024" transform="matrix(1 0 0 -1 663 36)" fill="url(#paint13_linear_142_146)"/>
<circle r="13.6585" transform="matrix(1 0 0 -1 663 36)" fill="url(#paint14_linear_142_146)"/>
<circle opacity="0.3" r="35" transform="matrix(1 0 0 -1 1031 35)" fill="url(#paint15_linear_142_146)"/>
<circle opacity="0.4" r="23.9024" transform="matrix(1 0 0 -1 1031 35)" fill="url(#paint16_linear_142_146)"/>
<circle r="13.6585" transform="matrix(1 0 0 -1 1031 35)" fill="url(#paint17_linear_142_146)"/>
<defs>
<linearGradient id="paint0_linear_142_146" x1="47.0223" y1="22.8003" x2="31.3376" y2="69.8458" gradientUnits="userSpaceOnUse">
<stop stop-color="#D27DE8"/>
<stop offset="1" stop-color="#6B5ABF"/>
</linearGradient>
<linearGradient id="paint1_linear_142_146" x1="32.1128" y1="15.5709" x2="21.4013" y2="47.6996" gradientUnits="userSpaceOnUse">
<stop stop-color="#D27DE8"/>
<stop offset="1" stop-color="#6B5ABF"/>
</linearGradient>
<linearGradient id="paint2_linear_142_146" x1="18.3502" y1="8.89766" x2="12.2293" y2="27.2569" gradientUnits="userSpaceOnUse">
<stop stop-color="#D27DE8"/>
<stop offset="1" stop-color="#6B5ABF"/>
</linearGradient>
<linearGradient id="paint3_linear_142_146" x1="47.0223" y1="22.8003" x2="31.3376" y2="69.8458" gradientUnits="userSpaceOnUse">
<stop stop-color="#D27DE8"/>
<stop offset="1" stop-color="#6B5ABF"/>
</linearGradient>
<linearGradient id="paint4_linear_142_146" x1="32.1128" y1="15.5709" x2="21.4013" y2="47.6996" gradientUnits="userSpaceOnUse">
<stop stop-color="#D27DE8"/>
<stop offset="1" stop-color="#6B5ABF"/>
</linearGradient>
<linearGradient id="paint5_linear_142_146" x1="18.3502" y1="8.89766" x2="12.2293" y2="27.2569" gradientUnits="userSpaceOnUse">
<stop stop-color="#D27DE8"/>
<stop offset="1" stop-color="#6B5ABF"/>
</linearGradient>
<linearGradient id="paint6_linear_142_146" x1="47.0223" y1="22.8003" x2="31.3376" y2="69.8458" gradientUnits="userSpaceOnUse">
<stop stop-color="#D27DE8"/>
<stop offset="1" stop-color="#6B5ABF"/>
</linearGradient>
<linearGradient id="paint7_linear_142_146" x1="32.1128" y1="15.5709" x2="21.4013" y2="47.6996" gradientUnits="userSpaceOnUse">
<stop stop-color="#D27DE8"/>
<stop offset="1" stop-color="#6B5ABF"/>
</linearGradient>
<linearGradient id="paint8_linear_142_146" x1="18.3502" y1="8.89766" x2="12.2293" y2="27.2569" gradientUnits="userSpaceOnUse">
<stop stop-color="#D27DE8"/>
<stop offset="1" stop-color="#6B5ABF"/>
</linearGradient>
<linearGradient id="paint9_linear_142_146" x1="49.8721" y1="24.1821" x2="33.2368" y2="74.0789" gradientUnits="userSpaceOnUse">
<stop stop-color="#D27DE8"/>
<stop offset="1" stop-color="#6B5ABF"/>
</linearGradient>
<linearGradient id="paint10_linear_142_146" x1="34.059" y1="16.5146" x2="22.6983" y2="50.5905" gradientUnits="userSpaceOnUse">
<stop stop-color="#D27DE8"/>
<stop offset="1" stop-color="#6B5ABF"/>
</linearGradient>
<linearGradient id="paint11_linear_142_146" x1="19.4623" y1="9.43692" x2="12.9705" y2="28.9088" gradientUnits="userSpaceOnUse">
<stop stop-color="#D27DE8"/>
<stop offset="1" stop-color="#6B5ABF"/>
</linearGradient>
<linearGradient id="paint12_linear_142_146" x1="49.8721" y1="24.1821" x2="33.2368" y2="74.0789" gradientUnits="userSpaceOnUse">
<stop stop-color="#D27DE8"/>
<stop offset="1" stop-color="#6B5ABF"/>
</linearGradient>
<linearGradient id="paint13_linear_142_146" x1="34.059" y1="16.5146" x2="22.6983" y2="50.5905" gradientUnits="userSpaceOnUse">
<stop stop-color="#D27DE8"/>
<stop offset="1" stop-color="#6B5ABF"/>
</linearGradient>
<linearGradient id="paint14_linear_142_146" x1="19.4623" y1="9.43692" x2="12.9705" y2="28.9088" gradientUnits="userSpaceOnUse">
<stop stop-color="#D27DE8"/>
<stop offset="1" stop-color="#6B5ABF"/>
</linearGradient>
<linearGradient id="paint15_linear_142_146" x1="49.8721" y1="24.1821" x2="33.2368" y2="74.0789" gradientUnits="userSpaceOnUse">
<stop stop-color="#D27DE8"/>
<stop offset="1" stop-color="#6B5ABF"/>
</linearGradient>
<linearGradient id="paint16_linear_142_146" x1="34.059" y1="16.5146" x2="22.6983" y2="50.5905" gradientUnits="userSpaceOnUse">
<stop stop-color="#D27DE8"/>
<stop offset="1" stop-color="#6B5ABF"/>
</linearGradient>
<linearGradient id="paint17_linear_142_146" x1="19.4623" y1="9.43692" x2="12.9705" y2="28.9088" gradientUnits="userSpaceOnUse">
<stop stop-color="#D27DE8"/>
<stop offset="1" stop-color="#6B5ABF"/>
</linearGradient>
</defs>
</svg>
