<svg width="57" height="56" viewBox="0 0 57 56" fill="none" xmlns="http://www.w3.org/2000/svg">
<path d="M28.6618 20.3301C24.4385 20.3301 20.992 23.7766 20.992 28C20.992 32.2234 24.4385 35.6699 28.6618 35.6699C32.8851 35.6699 36.3316 32.2234 36.3316 28C36.3316 23.7766 32.8851 20.3301 28.6618 20.3301ZM51.6654 28C51.6654 24.8239 51.6942 21.6765 51.5158 18.5061C51.3374 14.8236 50.4974 11.5554 47.8046 8.86257C45.1061 6.164 41.8437 5.32968 38.1613 5.15131C34.9852 4.97294 31.8379 5.00171 28.6675 5.00171C25.4915 5.00171 22.3441 4.97294 19.1738 5.15131C15.4914 5.32968 12.2232 6.16975 9.53047 8.86257C6.83194 11.5611 5.99765 14.8236 5.81928 18.5061C5.64091 21.6822 5.66968 24.8296 5.66968 28C5.66968 31.1704 5.64091 34.3235 5.81928 37.4939C5.99765 41.1764 6.8377 44.4446 9.53047 47.1374C12.229 49.836 15.4914 50.6703 19.1738 50.8487C22.3499 51.0271 25.4972 50.9983 28.6675 50.9983C31.8436 50.9983 34.9909 51.0271 38.1613 50.8487C41.8437 50.6703 45.1118 49.8302 47.8046 47.1374C50.5031 44.4389 51.3374 41.1764 51.5158 37.4939C51.6999 34.3235 51.6654 31.1761 51.6654 28V28ZM28.6618 39.8012C22.1312 39.8012 16.8608 34.5307 16.8608 28C16.8608 21.4693 22.1312 16.1988 28.6618 16.1988C35.1923 16.1988 40.4628 21.4693 40.4628 28C40.4628 34.5307 35.1923 39.8012 28.6618 39.8012ZM40.9461 18.4716C39.4214 18.4716 38.19 17.2402 38.19 15.7155C38.19 14.1907 39.4214 12.9593 40.9461 12.9593C42.4709 12.9593 43.7022 14.1907 43.7022 15.7155C43.7026 16.0775 43.6316 16.4361 43.4933 16.7707C43.355 17.1053 43.152 17.4093 42.896 17.6653C42.6399 17.9213 42.3359 18.1243 42.0013 18.2627C41.6668 18.401 41.3082 18.472 40.9461 18.4716V18.4716Z" fill="url(#paint0_linear_1_1130)"/>
<defs>
<linearGradient id="paint0_linear_1_1130" x1="38.4411" y1="20.8911" x2="27.5093" y2="53.6804" gradientUnits="userSpaceOnUse">
<stop stop-color="#D27DE8"/>
<stop offset="1" stop-color="#6B5ABF"/>
</linearGradient>
</defs>
</svg>
