<svg width="325" height="22" viewBox="0 0 325 22" fill="none" xmlns="http://www.w3.org/2000/svg">
<path d="M3.95423 17.8119V0H0V21.7661H15.995V17.8119H3.95423Z" fill="url(#paint0_linear_1_733)"/>
<path d="M28.5535 0C25.7749 0 23.2456 1.13996 21.4288 2.95677C19.612 4.77358 18.5076 7.30286 18.5076 10.0815V21.7661H22.4619V12.8602H30.6909V8.90593H22.4619C22.4619 7.55223 22.9962 6.3054 23.8868 5.4148C24.7774 4.52421 26.0242 3.95423 27.4136 3.95423H29.6935C31.7597 3.95423 33.5408 5.23669 34.2889 7.08912C34.5027 7.6591 34.6452 8.2647 34.6452 8.90593V21.7661H38.5994V10.0815C38.5994 4.52421 34.1108 0 28.5535 0Z" fill="url(#paint1_linear_1_733)"/>
<path d="M45.0746 21.7661V11.0434H41.1203V21.7661H45.0746ZM63.4208 0L63.3852 0.0712466L54.2299 13.537L45.0746 0.0712466L45.039 0H41.1203V7.08912H45.0746L51.8431 17.0638V17.0994H56.581L56.6167 17.0638L63.3852 7.08912V21.7661H67.3394V0H63.4208Z" fill="url(#paint2_linear_1_733)"/>
<path d="M90.6518 6.44789C90.6518 4.66671 89.9393 3.06364 88.7637 1.88806C87.5881 0.748097 85.9851 0 84.2039 0H79.8222C74.6924 0 70.56 4.16797 70.56 9.29779V21.7661H84.0258C87.5881 21.7661 90.6162 18.9874 90.6518 15.4251C90.6518 13.6439 89.9749 12.0764 88.8706 10.9009C89.9749 9.72527 90.6518 8.19345 90.6518 6.44789ZM84.1326 12.8602C85.4151 12.8602 86.5907 13.8576 86.6976 15.1757C86.7332 15.9238 86.4482 16.6007 85.9851 17.0994C85.522 17.5625 84.9164 17.8119 84.2039 17.8119H74.5142V9.93902C74.5142 6.62601 77.186 3.95423 80.4634 3.95423H84.2039C85.5932 3.95423 86.6976 5.05857 86.6976 6.44789C86.6976 7.12474 86.4126 7.73035 85.9851 8.19346C85.522 8.65656 84.9164 8.90593 84.2039 8.90593H78.4685V12.8602H84.1326Z" fill="url(#paint3_linear_1_733)"/>
<path d="M112.718 14.7126C113.146 13.537 113.395 12.2189 113.395 10.8652C113.395 4.88045 108.871 0 103.314 0C97.7921 0 93.3035 4.88045 93.3035 10.8652C93.3035 16.8856 97.7921 21.7661 103.314 21.7661C105.095 21.7661 106.769 21.2674 108.23 20.3768C108.23 20.3768 108.23 20.3768 108.265 20.3411C108.55 20.163 110.189 18.9162 111.472 17.2063L108.301 14.8551C106.52 17.0281 105.202 17.4556 105.202 17.4556C104.988 17.5269 104.774 17.5981 104.596 17.6694C104.169 17.7406 103.777 17.8119 103.314 17.8119C99.9652 17.8119 97.2221 14.7126 97.2221 10.8652C97.2221 7.0535 99.9652 3.95423 103.314 3.95423C106.698 3.95423 109.441 7.0535 109.441 10.8652C109.441 11.3283 109.405 11.7914 109.334 12.2189L112.718 14.7126Z" fill="url(#paint4_linear_1_733)"/>
<path d="M113.638 0L122.473 21.7661H126.748L117.877 0H113.638ZM131.343 0L126.748 11.2571L128.885 16.4938L133.481 5.27231L140.178 21.7661H144.453L135.618 0H131.343ZM149.048 0L144.453 11.2571L146.59 16.4938L153.323 0H149.048Z" fill="url(#paint5_linear_1_733)"/>
<path d="M159.251 21.7661V16.8144H155.297V21.7661H159.251ZM171.435 0V8.90593H159.251V0H155.297V12.8602H171.435V21.7661H175.389V0H171.435Z" fill="url(#paint6_linear_1_733)"/>
<path d="M188.304 0C185.525 0 182.996 1.13996 181.179 2.95677C179.362 4.77358 178.258 7.30286 178.258 10.0815V21.7661H182.212V12.8602H190.441V8.90593H182.212C182.212 7.55223 182.746 6.3054 183.637 5.4148C184.528 4.52421 185.774 3.95423 187.164 3.95423H189.444C191.51 3.95423 193.291 5.23669 194.039 7.08912C194.253 7.6591 194.395 8.2647 194.395 8.90593V21.7661H198.35V10.0815C198.35 4.52421 193.861 0 188.304 0Z" fill="url(#paint7_linear_1_733)"/>
<path d="M204.825 17.8119V0H200.87V21.7661H216.865V17.8119H204.825Z" fill="url(#paint8_linear_1_733)"/>
<path d="M219.378 0V5.02294H223.332V3.95423H238.116V0H219.378ZM223.332 12.8602H233.164V8.97718H219.378V21.7661H238.116V17.8119H223.332V12.8602Z" fill="url(#paint9_linear_1_733)"/>
<path d="M251.402 0C248.374 0 245.666 1.24683 243.707 3.20613C242.175 4.73795 241.106 6.69726 240.715 8.90593H244.776C245.595 6.05603 248.267 3.95423 251.402 3.95423H260.628V0H251.402ZM244.74 12.8602H240.715C241.605 17.9544 246.058 21.7661 251.402 21.7661H260.628V17.8119H251.402C248.267 17.8119 245.595 15.7457 244.74 12.8602Z" fill="white"/>
<path d="M267.108 17.8119V0H263.153V21.7661H279.148V17.8119H267.108Z" fill="white"/>
<path d="M297.799 0V11.7202C297.799 15.1045 295.056 17.8119 291.707 17.8119C288.323 17.8119 285.615 15.1045 285.615 11.7202V0H281.661V11.7202C281.661 17.2775 286.15 21.7661 291.707 21.7661C297.264 21.7661 301.753 17.2775 301.753 11.7202V0H297.799Z" fill="white"/>
<path d="M325 6.44789C325 4.66671 324.288 3.06364 323.112 1.88806C321.936 0.748097 320.333 0 318.552 0H314.17C309.041 0 304.908 4.16797 304.908 9.29779V21.7661H318.374C321.936 21.7661 324.964 18.9874 325 15.4251C325 13.6439 324.323 12.0764 323.219 10.9009C324.323 9.72527 325 8.19345 325 6.44789ZM318.481 12.8602C319.763 12.8602 320.939 13.8576 321.046 15.1757C321.081 15.9238 320.796 16.6007 320.333 17.0994C319.87 17.5625 319.265 17.8119 318.552 17.8119H308.862V9.93902C308.862 6.62601 311.534 3.95423 314.812 3.95423H318.552C319.941 3.95423 321.046 5.05857 321.046 6.44789C321.046 7.12474 320.761 7.73035 320.333 8.19346C319.87 8.65656 319.265 8.90593 318.552 8.90593H312.817V12.8602H318.481Z" fill="white"/>
<defs>
<linearGradient id="paint0_linear_1_733" x1="119.11" y1="0.646326" x2="119.11" y2="21.7661" gradientUnits="userSpaceOnUse">
<stop stop-color="#48CAFD"/>
<stop offset="1" stop-color="#BF55C4"/>
</linearGradient>
<linearGradient id="paint1_linear_1_733" x1="119.11" y1="0.646326" x2="119.11" y2="21.7661" gradientUnits="userSpaceOnUse">
<stop stop-color="#48CAFD"/>
<stop offset="1" stop-color="#BF55C4"/>
</linearGradient>
<linearGradient id="paint2_linear_1_733" x1="119.11" y1="0.646326" x2="119.11" y2="21.7661" gradientUnits="userSpaceOnUse">
<stop stop-color="#48CAFD"/>
<stop offset="1" stop-color="#BF55C4"/>
</linearGradient>
<linearGradient id="paint3_linear_1_733" x1="119.11" y1="0.646326" x2="119.11" y2="21.7661" gradientUnits="userSpaceOnUse">
<stop stop-color="#48CAFD"/>
<stop offset="1" stop-color="#BF55C4"/>
</linearGradient>
<linearGradient id="paint4_linear_1_733" x1="119.11" y1="0.646326" x2="119.11" y2="21.7661" gradientUnits="userSpaceOnUse">
<stop stop-color="#48CAFD"/>
<stop offset="1" stop-color="#BF55C4"/>
</linearGradient>
<linearGradient id="paint5_linear_1_733" x1="119.11" y1="0.646326" x2="119.11" y2="21.7661" gradientUnits="userSpaceOnUse">
<stop stop-color="#48CAFD"/>
<stop offset="1" stop-color="#BF55C4"/>
</linearGradient>
<linearGradient id="paint6_linear_1_733" x1="119.11" y1="0.646326" x2="119.11" y2="21.7661" gradientUnits="userSpaceOnUse">
<stop stop-color="#48CAFD"/>
<stop offset="1" stop-color="#BF55C4"/>
</linearGradient>
<linearGradient id="paint7_linear_1_733" x1="119.11" y1="0.646326" x2="119.11" y2="21.7661" gradientUnits="userSpaceOnUse">
<stop stop-color="#48CAFD"/>
<stop offset="1" stop-color="#BF55C4"/>
</linearGradient>
<linearGradient id="paint8_linear_1_733" x1="119.11" y1="0.646326" x2="119.11" y2="21.7661" gradientUnits="userSpaceOnUse">
<stop stop-color="#48CAFD"/>
<stop offset="1" stop-color="#BF55C4"/>
</linearGradient>
<linearGradient id="paint9_linear_1_733" x1="119.11" y1="0.646326" x2="119.11" y2="21.7661" gradientUnits="userSpaceOnUse">
<stop stop-color="#48CAFD"/>
<stop offset="1" stop-color="#BF55C4"/>
</linearGradient>
</defs>
</svg>
