<svg width="229" height="258" viewBox="0 0 229 258" fill="none" xmlns="http://www.w3.org/2000/svg">
<g filter="url(#filter0_f_89_26)">
<path d="M109.558 184C108.978 183.999 108.403 183.898 107.858 183.7C106.806 183.315 105.915 182.588 105.325 181.637C104.736 180.685 104.483 179.563 104.608 178.45L108.458 143H79.0075C78.0992 143.001 77.2076 142.755 76.4286 142.288C75.6496 141.821 75.0125 141.15 74.5859 140.349C74.1592 139.547 73.9591 138.644 74.0069 137.737C74.0548 136.829 74.3489 135.953 74.8575 135.2L114.308 76.2C114.931 75.2767 115.846 74.5883 116.906 74.244C117.966 73.8998 119.11 73.9195 120.158 74.3C121.164 74.6738 122.024 75.3619 122.61 76.2624C123.195 77.163 123.475 78.2281 123.408 79.3L119.558 115H149.008C149.916 114.999 150.807 115.245 151.586 115.712C152.365 116.179 153.003 116.85 153.429 117.651C153.856 118.453 154.056 119.356 154.008 120.263C153.96 121.171 153.666 122.047 153.158 122.8L113.708 181.8C113.249 182.479 112.631 183.034 111.907 183.418C111.183 183.801 110.377 184.001 109.558 184Z" fill="url(#paint0_linear_89_26)"/>
</g>
<g opacity="0.5" filter="url(#filter1_f_89_26)">
<path d="M119.566 178.5H119.566C119.044 178.5 118.527 178.409 118.037 178.231C117.091 177.884 116.288 177.23 115.758 176.374C115.228 175.517 115 174.507 115.112 173.506L115.112 173.504L118.962 138.054L119.022 137.5H118.465H89.0151H89.0144C88.1968 137.502 87.3944 137.28 86.6933 136.86C85.9922 136.439 85.4189 135.836 85.0349 135.114C84.6509 134.392 84.4707 133.58 84.5138 132.763C84.5569 131.947 84.8215 131.158 85.2794 130.48L85.2808 130.478L124.729 71.4804C124.73 71.4801 124.73 71.4798 124.73 71.4795C125.292 70.649 126.114 70.0298 127.068 69.7201C128.021 69.4105 129.05 69.428 129.993 69.7698C130.898 70.1064 131.671 70.7254 132.198 71.5354C132.723 72.3429 132.975 73.2973 132.917 74.2584L129.068 109.947L129.008 110.5H129.565H159.015H159.016C159.833 110.499 160.636 110.721 161.337 111.141C162.038 111.562 162.611 112.165 162.995 112.887C163.379 113.609 163.559 114.421 163.516 115.238C163.473 116.054 163.209 116.843 162.751 117.52L162.749 117.523L123.301 176.52C123.301 176.521 123.3 176.521 123.3 176.521C122.887 177.132 122.331 177.631 121.68 177.976C121.029 178.322 120.303 178.502 119.566 178.5Z" stroke="url(#paint1_linear_89_26)"/>
</g>
<path d="M109.558 184C108.978 183.999 108.403 183.898 107.858 183.7C106.806 183.315 105.915 182.588 105.325 181.637C104.736 180.685 104.483 179.563 104.608 178.45L108.458 143H79.0075C78.0992 143.001 77.2076 142.755 76.4286 142.288C75.6496 141.821 75.0125 141.15 74.5859 140.349C74.1592 139.547 73.9591 138.644 74.0069 137.737C74.0548 136.829 74.3489 135.953 74.8575 135.2L114.308 76.2C114.931 75.2767 115.846 74.5883 116.906 74.244C117.966 73.8998 119.11 73.9195 120.158 74.3C121.164 74.6738 122.024 75.3619 122.61 76.2624C123.195 77.163 123.475 78.2281 123.408 79.3L119.558 115H149.008C149.916 114.999 150.807 115.245 151.586 115.712C152.365 116.179 153.003 116.85 153.429 117.651C153.856 118.453 154.056 119.356 154.008 120.263C153.96 121.171 153.666 122.047 153.158 122.8L113.708 181.8C113.249 182.479 112.631 183.034 111.907 183.418C111.183 183.801 110.377 184.001 109.558 184Z" fill="url(#paint2_linear_89_26)"/>
<defs>
<filter id="filter0_f_89_26" x="0" y="-0.000488281" width="228.015" height="258" filterUnits="userSpaceOnUse" color-interpolation-filters="sRGB">
<feFlood flood-opacity="0" result="BackgroundImageFix"/>
<feBlend mode="normal" in="SourceGraphic" in2="BackgroundImageFix" result="shape"/>
<feGaussianBlur stdDeviation="37" result="effect1_foregroundBlur_89_26"/>
</filter>
<filter id="filter1_f_89_26" x="82.0076" y="67" width="84.0151" height="114" filterUnits="userSpaceOnUse" color-interpolation-filters="sRGB">
<feFlood flood-opacity="0" result="BackgroundImageFix"/>
<feBlend mode="normal" in="SourceGraphic" in2="BackgroundImageFix" result="shape"/>
<feGaussianBlur stdDeviation="1" result="effect1_foregroundBlur_89_26"/>
</filter>
<linearGradient id="paint0_linear_89_26" x1="131.007" y1="112" x2="98.0075" y2="184" gradientUnits="userSpaceOnUse">
<stop stop-color="#D27DE8"/>
<stop offset="1" stop-color="#6B5ABF"/>
</linearGradient>
<linearGradient id="paint1_linear_89_26" x1="141.015" y1="107.001" x2="108.015" y2="179.001" gradientUnits="userSpaceOnUse">
<stop stop-color="#D27DE8"/>
<stop offset="1" stop-color="#6B5ABF"/>
</linearGradient>
<linearGradient id="paint2_linear_89_26" x1="131.007" y1="112" x2="98.0075" y2="184" gradientUnits="userSpaceOnUse">
<stop stop-color="#D27DE8"/>
<stop offset="1" stop-color="#6B5ABF"/>
</linearGradient>
</defs>
</svg>
