<svg width="257" height="258" viewBox="0 0 257 258" fill="none" xmlns="http://www.w3.org/2000/svg">
<g opacity="0.5" filter="url(#filter0_f_146_100)">
<path fill-rule="evenodd" clip-rule="evenodd" d="M155.662 95.3956C159.387 95.4093 162.388 97.1495 162.388 99.3061L162.456 136.064H149.135V129.444H155.846V122.421C155.806 122.421 155.77 122.428 155.734 122.435C155.698 122.442 155.662 122.449 155.621 122.449C153.075 122.449 150.863 121.638 149.708 120.438C145.962 131.183 137.861 142.745 128.466 142.745C118.97 142.745 110.786 130.892 107.102 120.038C105.953 121.202 103.768 121.991 101.264 121.991C97.567 121.991 94.5794 120.271 94.5794 118.163V99.3676C94.5794 97.2451 97.5602 95.5321 101.264 95.5321C101.294 95.5321 101.322 95.537 101.351 95.5419C101.382 95.5472 101.413 95.5526 101.448 95.5526V90.9528C101.448 90.9476 101.448 90.9416 101.448 90.9347C101.446 90.0517 101.408 74.792 128.548 74.792C155.703 74.792 155.665 90.0518 155.662 90.9347L155.662 90.9528V95.3956ZM107.937 99.1707C111.932 92.7512 119.629 88.4005 128.466 88.4005C137.254 88.4051 144.91 92.6993 148.928 99.0467C148.934 99.0344 148.94 99.0222 148.946 99.01C148.977 98.9439 149.009 98.8776 149.025 98.8079V93.4096C149.025 93.3882 149.03 93.3437 149.038 93.2781C149.189 91.8999 150.361 81.2413 128.548 81.2413C106.627 81.2413 107.551 92.0136 107.661 93.2993C107.666 93.3533 107.669 93.3906 107.669 93.4096V98.535C107.7 98.6125 107.737 98.6895 107.774 98.7668C107.838 98.8994 107.902 99.0327 107.937 99.1707ZM128.487 157.179C118.651 157.179 108.658 151.337 102.826 143.605C74.8458 143.605 74 183.597 74 183.597H182.967C182.967 183.597 185.163 143.427 153.698 143.427C147.872 151.255 138.323 157.179 128.487 157.179Z" fill="url(#paint0_linear_146_100)"/>
</g>
<g opacity="0.5" filter="url(#filter1_f_146_100)">
<mask id="path-2-inside-1_146_100" fill="white">
<path fill-rule="evenodd" clip-rule="evenodd" d="M160.662 90.3956C164.387 90.4093 167.388 92.1495 167.388 94.3061L167.456 131.064H154.135V124.444H160.846V117.421C160.806 117.421 160.77 117.428 160.734 117.435C160.698 117.442 160.662 117.449 160.621 117.449C158.075 117.449 155.863 116.638 154.708 115.438C150.962 126.183 142.861 137.745 133.466 137.745C123.97 137.745 115.786 125.892 112.102 115.038C110.953 116.202 108.768 116.991 106.264 116.991C102.567 116.991 99.5794 115.271 99.5794 113.163V94.3676C99.5794 92.2451 102.56 90.5321 106.264 90.5321C106.294 90.5321 106.322 90.537 106.351 90.5419C106.382 90.5472 106.413 90.5526 106.448 90.5526V85.9528C106.448 85.9476 106.448 85.9416 106.448 85.9347C106.446 85.0517 106.408 69.792 133.548 69.792C160.703 69.792 160.665 85.0518 160.662 85.9347L160.662 85.9528V90.3956ZM112.937 94.1707C116.932 87.7512 124.629 83.4005 133.466 83.4005C142.254 83.4051 149.91 87.6993 153.928 94.0467C153.934 94.0344 153.94 94.0222 153.946 94.01C153.977 93.9439 154.009 93.8776 154.025 93.8079V88.4096C154.025 88.3882 154.03 88.3437 154.038 88.2781C154.189 86.8999 155.361 76.2413 133.548 76.2413C111.627 76.2413 112.551 87.0136 112.661 88.2993C112.666 88.3533 112.669 88.3906 112.669 88.4096V93.535C112.7 93.6125 112.737 93.6895 112.774 93.7668C112.838 93.8994 112.902 94.0327 112.937 94.1707ZM133.487 152.179C123.651 152.179 113.658 146.337 107.826 138.605C79.8458 138.605 79 178.597 79 178.597H187.967C187.967 178.597 190.163 138.427 158.698 138.427C152.872 146.255 143.323 152.179 133.487 152.179Z"/>
</mask>
<path d="M167.388 94.3061H166.388V94.308L167.388 94.3061ZM160.662 90.3956H159.662V91.392L160.659 91.3956L160.662 90.3956ZM167.456 131.064V132.064H168.458L168.456 131.062L167.456 131.064ZM154.135 131.064H153.135V132.064H154.135V131.064ZM154.135 124.444V123.444H153.135V124.444H154.135ZM160.846 124.444V125.444H161.846V124.444H160.846ZM160.846 117.421H161.846V116.421H160.846V117.421ZM160.734 117.435L160.547 116.453L160.547 116.453L160.734 117.435ZM154.708 115.438L155.428 114.745L154.299 113.573L153.764 115.109L154.708 115.438ZM112.102 115.038L113.049 114.717L112.529 113.183L111.391 114.335L112.102 115.038ZM106.351 90.5419L106.182 91.5275H106.182L106.351 90.5419ZM106.448 90.5526V91.5526H107.448V90.5526H106.448ZM106.448 85.9347L107.448 85.9322V85.9322L106.448 85.9347ZM160.662 85.9347L159.662 85.9322V85.9331L160.662 85.9347ZM160.662 85.9528L159.662 85.9511V85.9528H160.662ZM133.466 83.4005L133.467 82.4005H133.466V83.4005ZM112.937 94.1707L111.966 94.4126L112.538 96.7044L113.786 94.6991L112.937 94.1707ZM153.928 94.0467L153.083 94.5816L154.061 96.1262L154.835 94.4697L153.928 94.0467ZM153.946 94.01L153.043 93.5806L153.043 93.5807L153.946 94.01ZM154.025 93.8079L154.998 94.0413L155.025 93.9262V93.8079H154.025ZM154.038 88.2781L153.043 88.1688V88.1688L154.038 88.2781ZM112.661 88.2993L113.658 88.2138L113.658 88.2138L112.661 88.2993ZM112.669 93.535H111.669V93.7274L111.741 93.9062L112.669 93.535ZM112.774 93.7668L113.675 93.3331L113.675 93.3331L112.774 93.7668ZM107.826 138.605L108.624 138.003L108.324 137.605H107.826V138.605ZM79 178.597L78.0002 178.576L77.9786 179.597H79V178.597ZM187.967 178.597V179.597H188.914L188.966 178.652L187.967 178.597ZM158.698 138.427V137.427H158.195L157.895 137.83L158.698 138.427ZM168.388 94.3061C168.388 92.7228 167.293 91.4779 165.924 90.6826C164.531 89.873 162.67 89.403 160.666 89.3956L160.659 91.3956C162.379 91.4019 163.881 91.8088 164.919 92.4119C165.982 93.0294 166.388 93.7329 166.388 94.3061H168.388ZM168.456 131.062L168.388 94.3043L166.388 94.308L166.456 131.066L168.456 131.062ZM154.135 132.064H167.456V130.064H154.135V132.064ZM153.135 124.444V131.064H155.135V124.444H153.135ZM160.846 123.444H154.135V125.444H160.846V123.444ZM159.846 117.421V124.444H161.846V117.421H159.846ZM160.921 118.417C160.931 118.415 160.934 118.415 160.935 118.415C160.936 118.414 160.932 118.415 160.925 118.416C160.91 118.418 160.882 118.421 160.846 118.421V116.421C160.698 116.421 160.575 116.447 160.547 116.453L160.921 118.417ZM160.621 118.449C160.77 118.449 160.893 118.423 160.921 118.417L160.547 116.453C160.537 116.454 160.534 116.455 160.533 116.455C160.532 116.455 160.536 116.455 160.543 116.454C160.558 116.452 160.586 116.449 160.621 116.449V118.449ZM153.988 116.132C155.394 117.592 157.91 118.449 160.621 118.449V116.449C158.241 116.449 156.332 115.683 155.428 114.745L153.988 116.132ZM133.466 138.745C138.585 138.745 143.211 135.605 146.961 131.276C150.729 126.927 153.747 121.232 155.652 115.768L153.764 115.109C151.923 120.389 149.018 125.848 145.45 129.966C141.864 134.105 137.742 136.745 133.466 136.745V138.745ZM111.155 115.359C113.029 120.881 116.052 126.676 119.845 131.112C123.619 135.526 128.291 138.745 133.466 138.745V136.745C129.145 136.745 124.978 134.038 121.365 129.812C117.77 125.608 114.859 120.049 113.049 114.717L111.155 115.359ZM106.264 117.991C108.932 117.991 111.414 117.158 112.814 115.74L111.391 114.335C110.491 115.247 108.604 115.991 106.264 115.991V117.991ZM98.5794 113.163C98.5794 114.729 99.6799 115.956 101.038 116.735C102.424 117.53 104.273 117.991 106.264 117.991V115.991C104.558 115.991 103.065 115.592 102.033 115C100.973 114.392 100.579 113.705 100.579 113.163H98.5794ZM98.5794 94.3676V113.163H100.579V94.3676H98.5794ZM106.264 89.5321C104.271 89.5321 102.421 89.991 101.035 90.7866C99.675 91.5673 98.5794 92.7965 98.5794 94.3676H100.579C100.579 93.8161 100.974 93.1276 102.031 92.5212C103.061 91.9297 104.554 91.5321 106.264 91.5321V89.5321ZM106.52 89.5563C106.504 89.5535 106.393 89.5321 106.264 89.5321V91.5321C106.225 91.5321 106.196 91.5289 106.182 91.5272C106.175 91.5263 106.171 91.5256 106.171 91.5257C106.172 91.5258 106.174 91.5261 106.182 91.5275L106.52 89.5563ZM106.448 89.5526C106.482 89.5526 106.508 89.5552 106.522 89.5569C106.528 89.5577 106.532 89.5584 106.532 89.5583C106.531 89.5581 106.529 89.5578 106.52 89.5563L106.182 91.5275C106.205 91.5314 106.316 91.5526 106.448 91.5526V89.5526ZM105.448 85.9528V90.5526H107.448V85.9528H105.448ZM105.448 85.9372C105.448 85.9446 105.448 85.9492 105.448 85.9528H107.448C107.448 85.9461 107.448 85.9387 107.448 85.9322L105.448 85.9372ZM133.548 68.792C119.794 68.792 112.695 72.6641 109.062 76.8794C105.449 81.0725 105.447 85.3994 105.448 85.9373L107.448 85.9322C107.447 85.5871 107.425 81.8426 110.577 78.1851C113.71 74.5497 120.163 70.792 133.548 70.792V68.792ZM161.662 85.9373C161.664 85.3994 161.662 81.0723 158.047 76.8793C154.412 72.6641 147.31 68.792 133.548 68.792V70.792C146.941 70.792 153.397 74.5499 156.532 78.1853C159.685 81.8429 159.663 85.5872 159.662 85.9322L161.662 85.9373ZM161.662 85.9545L161.662 85.9364L159.662 85.9331L159.662 85.9511L161.662 85.9545ZM161.662 90.3956V85.9528H159.662V90.3956H161.662ZM133.466 82.4005C124.307 82.4005 116.277 86.91 112.088 93.6423L113.786 94.6991C117.586 88.5923 124.95 84.4005 133.466 84.4005V82.4005ZM154.773 93.5118C150.56 86.8559 142.574 82.4053 133.467 82.4005L133.466 84.4005C141.934 84.405 149.26 88.5427 153.083 94.5816L154.773 93.5118ZM153.043 93.5807C153.037 93.5923 153.03 93.6078 153.022 93.6237L154.835 94.4697C154.839 94.4611 154.843 94.4521 154.849 94.4392L153.043 93.5807ZM153.053 93.5746C153.057 93.5579 153.061 93.5453 153.064 93.5377C153.066 93.5302 153.068 93.5264 153.067 93.5276C153.067 93.5289 153.065 93.5332 153.061 93.5425C153.059 93.547 153.056 93.5522 153.053 93.5587C153.05 93.5653 153.047 93.5721 153.043 93.5806L154.849 94.4393C154.872 94.391 154.952 94.2301 154.998 94.0413L153.053 93.5746ZM153.025 88.4096V93.8079H155.025V88.4096H153.025ZM153.043 88.1688C153.041 88.1947 153.025 88.3173 153.025 88.4096H155.025C155.025 88.4252 155.025 88.4373 155.025 88.4441C155.024 88.4513 155.024 88.4564 155.024 88.4587C155.024 88.4612 155.024 88.4623 155.024 88.4616C155.024 88.461 155.024 88.4594 155.024 88.4565C155.025 88.4506 155.026 88.4421 155.027 88.4299C155.028 88.4177 155.03 88.4041 155.032 88.3873L153.043 88.1688ZM133.548 77.2413C144.324 77.2413 149.128 79.8771 151.268 82.391C153.405 84.9012 153.112 87.5494 153.043 88.1688L155.032 88.3874C155.115 87.6285 155.484 84.2583 152.791 81.0947C150.101 77.9348 144.585 75.2413 133.548 75.2413V77.2413ZM113.658 88.2138C113.609 87.6494 113.375 84.9857 115.596 82.4464C117.819 79.9033 122.723 77.2413 133.548 77.2413V75.2413C122.452 75.2413 116.857 77.9655 114.09 81.1299C111.32 84.2982 111.603 87.6634 111.665 88.3848L113.658 88.2138ZM113.669 88.4096C113.669 88.3354 113.66 88.2382 113.658 88.2138L111.665 88.3847C111.666 88.3985 111.667 88.4098 111.668 88.4199C111.669 88.43 111.669 88.4371 111.67 88.4422C111.67 88.4476 111.67 88.4479 111.67 88.445C111.67 88.4434 111.67 88.4397 111.669 88.4344C111.669 88.4294 111.669 88.4208 111.669 88.4096H113.669ZM113.669 93.535V88.4096H111.669V93.535H113.669ZM113.675 93.3331C113.635 93.2502 113.614 93.2041 113.598 93.1637L111.741 93.9062C111.786 94.0209 111.839 94.1289 111.873 94.2005L113.675 93.3331ZM113.907 93.9288C113.843 93.6739 113.73 93.4473 113.675 93.3331L111.873 94.2005C111.946 94.3516 111.961 94.3916 111.966 94.4126L113.907 93.9288ZM107.028 139.207C113.015 147.145 123.285 153.179 133.487 153.179V151.179C124.017 151.179 114.301 145.529 108.624 138.003L107.028 139.207ZM79 178.597C79.9998 178.619 79.9998 178.619 79.9998 178.619C79.9998 178.619 79.9998 178.618 79.9998 178.618C79.9998 178.617 79.9998 178.616 79.9999 178.614C80 178.61 80.0001 178.604 80.0004 178.595C80.0008 178.578 80.0016 178.551 80.0028 178.515C80.0051 178.443 80.009 178.335 80.0153 178.193C80.028 177.908 80.0503 177.487 80.0885 176.95C80.1649 175.875 80.3052 174.335 80.56 172.485C81.0703 168.78 82.0369 163.858 83.858 158.949C87.5107 149.103 94.4623 139.605 107.826 139.605V137.605C93.2094 137.605 85.7481 148.104 81.9829 158.253C80.0949 163.343 79.1013 168.418 78.5787 172.212C78.317 174.112 78.1726 175.696 78.0935 176.808C78.054 177.364 78.0307 177.803 78.0173 178.104C78.0106 178.254 78.0064 178.371 78.0038 178.45C78.0025 178.49 78.0016 178.521 78.0011 178.542C78.0008 178.552 78.0006 178.56 78.0005 178.566C78.0004 178.569 78.0003 178.571 78.0003 178.573C78.0003 178.574 78.0003 178.575 78.0002 178.575C78.0002 178.576 78.0002 178.576 79 178.597ZM187.967 177.597H79V179.597H187.967V177.597ZM158.698 139.427C166.33 139.427 171.853 141.855 175.88 145.45C179.927 149.063 182.526 153.912 184.184 158.832C185.841 163.749 186.54 168.682 186.821 172.396C186.962 174.251 186.999 175.795 187 176.873C187.001 177.411 186.993 177.833 186.984 178.118C186.98 178.26 186.976 178.368 186.973 178.44C186.972 178.476 186.971 178.503 186.97 178.52C186.969 178.528 186.969 178.535 186.969 178.539C186.969 178.54 186.969 178.542 186.969 178.542C186.969 178.543 186.969 178.543 186.969 178.543C186.969 178.543 186.969 178.543 187.967 178.597C188.966 178.652 188.966 178.651 188.966 178.651C188.966 178.65 188.966 178.649 188.966 178.649C188.966 178.647 188.966 178.645 188.966 178.642C188.966 178.636 188.967 178.627 188.967 178.617C188.968 178.595 188.97 178.564 188.971 178.524C188.975 178.444 188.979 178.327 188.984 178.175C188.992 177.871 189.001 177.43 189 176.87C188.999 175.751 188.961 174.156 188.816 172.245C188.526 168.428 187.807 163.319 186.08 158.193C184.354 153.071 181.602 147.877 177.212 143.958C172.801 140.021 166.798 137.427 158.698 137.427V139.427ZM133.487 153.179C143.709 153.179 153.532 147.044 159.5 139.024L157.895 137.83C152.213 145.467 142.937 151.179 133.487 151.179V153.179Z" fill="url(#paint1_linear_146_100)" mask="url(#path-2-inside-1_146_100)"/>
</g>
<path fill-rule="evenodd" clip-rule="evenodd" d="M155.662 95.3956C159.387 95.4093 162.388 97.1495 162.388 99.3061L162.456 136.064H149.135V129.444H155.846V122.421C155.806 122.421 155.77 122.428 155.734 122.435C155.698 122.442 155.662 122.449 155.621 122.449C153.075 122.449 150.863 121.638 149.708 120.438C145.962 131.183 137.861 142.745 128.466 142.745C118.97 142.745 110.786 130.892 107.102 120.038C105.953 121.202 103.768 121.991 101.264 121.991C97.567 121.991 94.5794 120.271 94.5794 118.163V99.3676C94.5794 97.2451 97.5602 95.5321 101.264 95.5321C101.294 95.5321 101.322 95.537 101.351 95.5419C101.382 95.5472 101.413 95.5526 101.448 95.5526V90.9528C101.448 90.9476 101.448 90.9416 101.448 90.9347C101.446 90.0517 101.408 74.792 128.548 74.792C155.703 74.792 155.665 90.0518 155.662 90.9347L155.662 90.9528V95.3956ZM107.937 99.1707C111.932 92.7512 119.629 88.4005 128.466 88.4005C137.254 88.4051 144.91 92.6993 148.928 99.0467C148.934 99.0344 148.94 99.0222 148.946 99.01C148.977 98.9439 149.009 98.8776 149.025 98.8079V93.4096C149.025 93.3882 149.03 93.3437 149.038 93.2781C149.189 91.8999 150.361 81.2413 128.548 81.2413C106.627 81.2413 107.551 92.0136 107.661 93.2993C107.666 93.3533 107.669 93.3906 107.669 93.4096V98.535C107.7 98.6125 107.737 98.6895 107.774 98.7668C107.838 98.8994 107.902 99.0327 107.937 99.1707ZM128.487 157.179C118.651 157.179 108.658 151.337 102.826 143.605C74.8458 143.605 74 183.597 74 183.597H182.967C182.967 183.597 185.163 143.427 153.698 143.427C147.872 151.255 138.323 157.179 128.487 157.179Z" fill="url(#paint2_linear_146_100)"/>
<defs>
<filter id="filter0_f_146_100" x="0" y="0.791992" width="257" height="256.805" filterUnits="userSpaceOnUse" color-interpolation-filters="sRGB">
<feFlood flood-opacity="0" result="BackgroundImageFix"/>
<feBlend mode="normal" in="SourceGraphic" in2="BackgroundImageFix" result="shape"/>
<feGaussianBlur stdDeviation="37" result="effect1_foregroundBlur_146_100"/>
</filter>
<filter id="filter1_f_146_100" x="77" y="67.792" width="113" height="112.805" filterUnits="userSpaceOnUse" color-interpolation-filters="sRGB">
<feFlood flood-opacity="0" result="BackgroundImageFix"/>
<feBlend mode="normal" in="SourceGraphic" in2="BackgroundImageFix" result="shape"/>
<feGaussianBlur stdDeviation="1" result="effect1_foregroundBlur_146_100"/>
</filter>
<linearGradient id="paint0_linear_146_100" x1="151.658" y1="112.38" x2="125.838" y2="189.965" gradientUnits="userSpaceOnUse">
<stop stop-color="#D27DE8"/>
<stop offset="1" stop-color="#6B5ABF"/>
</linearGradient>
<linearGradient id="paint1_linear_146_100" x1="156.658" y1="107.38" x2="130.838" y2="184.965" gradientUnits="userSpaceOnUse">
<stop stop-color="#D27DE8"/>
<stop offset="1" stop-color="#6B5ABF"/>
</linearGradient>
<linearGradient id="paint2_linear_146_100" x1="151.658" y1="112.38" x2="125.838" y2="189.965" gradientUnits="userSpaceOnUse">
<stop stop-color="#D27DE8"/>
<stop offset="1" stop-color="#6B5ABF"/>
</linearGradient>
</defs>
</svg>
