<svg width="256" height="256" viewBox="0 0 256 256" fill="none" xmlns="http://www.w3.org/2000/svg">
<g opacity="0.5" filter="url(#filter0_f_89_40)">
<path d="M158.376 114.625L158.376 114.625L158.382 114.619C159.702 113.252 160.433 111.42 160.417 109.519C160.4 107.618 159.638 105.8 158.293 104.456C156.949 103.112 155.131 102.349 153.23 102.333C151.329 102.316 149.498 103.047 148.13 104.368L148.13 104.367L148.124 104.374L126.25 126.248L117.875 117.874L117.875 117.874L117.869 117.868C116.502 116.547 114.67 115.816 112.769 115.833C110.868 115.849 109.05 116.612 107.706 117.956C106.362 119.3 105.599 121.119 105.583 123.02C105.566 124.92 106.297 126.752 107.617 128.119L107.617 128.119L107.624 128.125L121.124 141.626L121.124 141.626C122.483 142.985 124.327 143.748 126.25 143.748C128.172 143.748 130.016 142.985 131.375 141.626L131.375 141.626L158.376 114.625ZM107.841 79.3188C112.288 78.9638 116.51 77.2147 119.905 74.3208L119.905 74.3206C123.558 71.2089 128.201 69.5 133 69.5C137.799 69.5 142.441 71.209 146.095 74.3208C149.489 77.2147 153.711 78.9638 158.158 79.3188C162.943 79.7012 167.435 81.7755 170.829 85.1698C174.224 88.5641 176.298 93.0564 176.68 97.8414C177.033 102.287 178.782 106.511 181.679 109.905C184.79 113.559 186.499 118.201 186.499 123C186.499 127.799 184.79 132.441 181.678 136.095C178.784 139.489 177.035 143.711 176.68 148.158C176.298 152.943 174.224 157.435 170.829 160.829C167.435 164.224 162.943 166.298 158.158 166.68C153.711 167.035 149.489 168.784 146.095 171.678C142.441 174.79 137.799 176.499 133 176.499C128.201 176.499 123.558 174.79 119.905 171.679C116.51 168.785 112.288 167.035 107.841 166.68C103.056 166.298 98.5641 164.224 95.1698 160.829C91.7755 157.435 89.7012 152.943 89.3188 148.158C88.9638 143.711 87.2147 139.489 84.3208 136.095C81.209 132.441 79.5 127.799 79.5 123C79.5 118.201 81.2089 113.558 84.3206 109.905C87.2147 106.51 88.9638 102.288 89.3188 97.8414C89.7012 93.0564 91.7755 88.5641 95.1698 85.1698C98.5641 81.7755 103.056 79.7012 107.841 79.3188Z" stroke="url(#paint0_linear_89_40)"/>
</g>
<g opacity="0.5" filter="url(#filter1_f_89_40)">
<path fill-rule="evenodd" clip-rule="evenodd" d="M102.802 83.8204C107.144 83.4737 111.266 81.7659 114.58 78.9401C118.324 75.7513 123.082 74 128 74C132.918 74 137.675 75.7513 141.419 78.9401C144.734 81.7659 148.856 83.4737 153.198 83.8204C158.101 84.2123 162.705 86.3379 166.183 89.8162C169.661 93.2946 171.787 97.8981 172.179 102.802C172.523 107.142 174.231 111.266 177.059 114.58C180.248 118.324 181.999 123.082 181.999 128C181.999 132.918 180.248 137.675 177.059 141.419C174.233 144.734 172.525 148.856 172.179 153.198C171.787 158.101 169.661 162.705 166.183 166.183C162.705 169.661 158.101 171.787 153.198 172.179C148.856 172.525 144.734 174.233 141.419 177.059C137.675 180.248 132.918 181.999 128 181.999C123.082 181.999 118.324 180.248 114.58 177.059C111.266 174.233 107.144 172.525 102.802 172.179C97.8981 171.787 93.2946 169.661 89.8162 166.183C86.3379 162.705 84.2123 158.101 83.8204 153.198C83.4737 148.856 81.7659 144.734 78.9401 141.419C75.7513 137.675 74 132.918 74 128C74 123.082 75.7513 118.324 78.9401 114.58C81.7659 111.266 83.4737 107.144 83.8204 102.802C84.2123 97.8981 86.3379 93.2946 89.8162 89.8162C93.2946 86.3379 97.8981 84.2123 102.802 83.8204ZM153.022 119.272C154.252 117.999 154.932 116.294 154.917 114.524C154.901 112.754 154.191 111.061 152.94 109.809C151.688 108.558 149.995 107.848 148.225 107.833C146.456 107.817 144.751 108.498 143.477 109.727L121.25 131.955L112.522 123.227C111.249 121.998 109.544 121.317 107.774 121.333C106.004 121.348 104.311 122.058 103.059 123.31C101.808 124.561 101.098 126.254 101.083 128.024C101.067 129.794 101.748 131.499 102.977 132.772L116.477 146.272C117.743 147.537 119.46 148.248 121.25 148.248C123.039 148.248 124.756 147.537 126.022 146.272L153.022 119.272Z" fill="url(#paint1_linear_89_40)"/>
</g>
<path fill-rule="evenodd" clip-rule="evenodd" d="M102.802 83.8204C107.144 83.4737 111.266 81.7659 114.58 78.9401C118.324 75.7513 123.082 74 128 74C132.918 74 137.675 75.7513 141.419 78.9401C144.734 81.7659 148.856 83.4737 153.198 83.8204C158.101 84.2123 162.705 86.3379 166.183 89.8162C169.661 93.2946 171.787 97.8981 172.179 102.802C172.523 107.142 174.231 111.266 177.059 114.58C180.248 118.324 181.999 123.082 181.999 128C181.999 132.918 180.248 137.675 177.059 141.419C174.233 144.734 172.525 148.856 172.179 153.198C171.787 158.101 169.661 162.705 166.183 166.183C162.705 169.661 158.101 171.787 153.198 172.179C148.856 172.525 144.734 174.233 141.419 177.059C137.675 180.248 132.918 181.999 128 181.999C123.082 181.999 118.324 180.248 114.58 177.059C111.266 174.233 107.144 172.525 102.802 172.179C97.8981 171.787 93.2946 169.661 89.8162 166.183C86.3379 162.705 84.2123 158.101 83.8204 153.198C83.4737 148.856 81.7659 144.734 78.9401 141.419C75.7513 137.675 74 132.918 74 128C74 123.082 75.7513 118.324 78.9401 114.58C81.7659 111.266 83.4737 107.144 83.8204 102.802C84.2123 97.8981 86.3379 93.2946 89.8162 89.8162C93.2946 86.3379 97.8981 84.2123 102.802 83.8204ZM153.022 119.272C154.252 117.999 154.932 116.294 154.917 114.524C154.901 112.754 154.191 111.061 152.94 109.809C151.688 108.558 149.995 107.848 148.225 107.833C146.456 107.817 144.751 108.498 143.477 109.727L121.25 131.955L112.522 123.227C111.249 121.998 109.544 121.317 107.774 121.333C106.004 121.348 104.311 122.058 103.059 123.31C101.808 124.561 101.098 126.254 101.083 128.024C101.067 129.794 101.748 131.499 102.977 132.772L116.477 146.272C117.743 147.537 119.46 148.248 121.25 148.248C123.039 148.248 124.756 147.537 126.022 146.272L153.022 119.272Z" fill="url(#paint2_linear_89_40)"/>
<defs>
<filter id="filter0_f_89_40" x="77" y="67" width="111.999" height="111.999" filterUnits="userSpaceOnUse" color-interpolation-filters="sRGB">
<feFlood flood-opacity="0" result="BackgroundImageFix"/>
<feBlend mode="normal" in="SourceGraphic" in2="BackgroundImageFix" result="shape"/>
<feGaussianBlur stdDeviation="1" result="effect1_foregroundBlur_89_40"/>
</filter>
<filter id="filter1_f_89_40" x="0" y="0" width="255.999" height="255.999" filterUnits="userSpaceOnUse" color-interpolation-filters="sRGB">
<feFlood flood-opacity="0" result="BackgroundImageFix"/>
<feBlend mode="normal" in="SourceGraphic" in2="BackgroundImageFix" result="shape"/>
<feGaussianBlur stdDeviation="37" result="effect1_foregroundBlur_89_40"/>
</filter>
<linearGradient id="paint0_linear_89_40" x1="155.945" y1="106.309" x2="130.279" y2="183.292" gradientUnits="userSpaceOnUse">
<stop stop-color="#D27DE8"/>
<stop offset="1" stop-color="#6B5ABF"/>
</linearGradient>
<linearGradient id="paint1_linear_89_40" x1="150.945" y1="111.309" x2="125.279" y2="188.292" gradientUnits="userSpaceOnUse">
<stop stop-color="#D27DE8"/>
<stop offset="1" stop-color="#6B5ABF"/>
</linearGradient>
<linearGradient id="paint2_linear_89_40" x1="150.945" y1="111.309" x2="125.279" y2="188.292" gradientUnits="userSpaceOnUse">
<stop stop-color="#D27DE8"/>
<stop offset="1" stop-color="#6B5ABF"/>
</linearGradient>
</defs>
</svg>
