<svg width="57" height="56" viewBox="0 0 57 56" fill="none" xmlns="http://www.w3.org/2000/svg">
<path d="M52.6678 28C52.6678 34.3652 50.1393 40.4697 45.6384 44.9706C41.1375 49.4714 35.033 52 28.6678 52C22.3027 52 16.1982 49.4714 11.6973 44.9706C7.19641 40.4697 4.66785 34.3652 4.66785 28C4.66785 21.6348 7.19641 15.5303 11.6973 11.0294C16.1982 6.52856 22.3027 4 28.6678 4C35.033 4 41.1375 6.52856 45.6384 11.0294C50.1393 15.5303 52.6678 21.6348 52.6678 28V28ZM29.5288 21.718C27.1948 22.69 22.5268 24.7 15.5308 27.748C14.3968 28.198 13.7998 28.642 13.7458 29.074C13.6558 29.803 14.5708 30.091 15.8158 30.484L16.3408 30.649C17.5648 31.048 19.2148 31.513 20.0698 31.531C20.8498 31.549 21.7168 31.231 22.6738 30.571C29.2108 26.158 32.5858 23.929 32.7958 23.881C32.9458 23.845 33.1558 23.803 33.2938 23.929C33.4348 24.052 33.4198 24.289 33.4048 24.352C33.3148 24.739 29.7238 28.075 27.8668 29.803C27.2878 30.343 26.8768 30.724 26.7928 30.811C26.6079 31 26.4199 31.1861 26.2288 31.369C25.0888 32.467 24.2368 33.289 26.2738 34.633C27.2548 35.281 28.0408 35.812 28.8238 36.346C29.6758 36.928 30.5278 37.507 31.6318 38.233C31.9108 38.413 32.1808 38.608 32.4418 38.794C33.4348 39.502 34.3318 40.138 35.4328 40.036C36.0748 39.976 36.7378 39.376 37.0738 37.576C37.8688 33.325 39.4318 24.118 39.7918 20.323C39.8138 20.0075 39.8007 19.6906 39.7528 19.378C39.7246 19.1258 39.6025 18.8934 39.4108 18.727C39.1379 18.5386 38.8125 18.4409 38.4808 18.448C37.5808 18.463 36.1918 18.946 29.5288 21.718V21.718Z" fill="url(#paint0_linear_1_1122)"/>
<defs>
<linearGradient id="paint0_linear_1_1122" x1="38.8659" y1="20.582" x2="27.4588" y2="54.797" gradientUnits="userSpaceOnUse">
<stop stop-color="#D27DE8"/>
<stop offset="1" stop-color="#6B5ABF"/>
</linearGradient>
</defs>
</svg>
