<svg width="57" height="56" viewBox="0 0 57 56" fill="none" xmlns="http://www.w3.org/2000/svg">
<path d="M28.668 4C15.4144 4 4.66797 14.7464 4.66797 28C4.66797 41.2536 15.4144 52 28.668 52C41.9215 52 52.668 41.2536 52.668 28C52.668 14.7464 41.9215 4 28.668 4ZM40.2019 22.0911C40.218 22.3429 40.218 22.6054 40.218 22.8625C40.218 30.7268 34.2287 39.7857 23.284 39.7857C19.909 39.7857 16.7805 38.8054 14.1448 37.1179C14.6269 37.1714 15.0876 37.1929 15.5805 37.1929C18.3662 37.1929 20.9269 36.25 22.968 34.6536C20.3537 34.6 18.1573 32.8857 17.4073 30.5286C18.3233 30.6625 19.1483 30.6625 20.0912 30.4214C18.7451 30.1479 17.5352 29.4169 16.667 28.3524C15.7988 27.2879 15.3259 25.9558 15.3287 24.5821V24.5071C16.1162 24.9518 17.043 25.225 18.0126 25.2625C17.1975 24.7193 16.529 23.9833 16.0664 23.1198C15.6038 22.2563 15.3615 21.2921 15.3608 20.3125C15.3608 19.2036 15.6501 18.1911 16.1698 17.3125C17.6639 19.1518 19.5283 20.6561 21.6419 21.7277C23.7555 22.7992 26.0709 23.414 28.4376 23.5321C27.5965 19.4875 30.618 16.2143 34.2501 16.2143C35.9644 16.2143 37.5073 16.9321 38.5948 18.0893C39.9394 17.8375 41.2251 17.3339 42.3715 16.6589C41.9269 18.0357 40.9948 19.1982 39.7573 19.9321C40.9573 19.8036 42.1144 19.4714 43.1858 19.0054C42.3769 20.1946 41.3644 21.25 40.2019 22.0911V22.0911Z" fill="url(#paint0_linear_1_1125)"/>
<defs>
<linearGradient id="paint0_linear_1_1125" x1="38.866" y1="20.582" x2="27.4589" y2="54.797" gradientUnits="userSpaceOnUse">
<stop stop-color="#D27DE8"/>
<stop offset="1" stop-color="#6B5ABF"/>
</linearGradient>
</defs>
</svg>
